<svg id="Rehau_Logo" data-name="Rehau Logo" xmlns="http://www.w3.org/2000/svg" viewBox="0 0 283.51 90.02"><defs><style>.cls-1{fill:#37a58c;}.cls-2{fill:#dd0060;}.cls-3{fill:#505050;}</style></defs><title>rehau-logo</title><g id="Icon"><path class="cls-1" d="M20.33,4.05C14.76,7,9.08,9.94,4.33,14.88c-4.42,4.51-5.57,12.2-2.91,18a61.76,61.76,0,0,0,11,15.34A62,62,0,0,1,20.33,4.05Z"/><path class="cls-2" d="M15.7,51.16C21.17,54.63,26.64,58,33,59.47c6.94,1.58,13.36-1.26,17.46-6.84A71,71,0,0,0,57.88,35.8,62.42,62.42,0,0,1,15.7,51.16Z"/><path class="cls-3" d="M56.82,8.78A16.91,16.91,0,0,0,43.57.05,66.67,66.67,0,0,0,25.06,1.94C38.73,6.39,52.42,17.72,59.35,30.87,59.66,23.3,60,15.2,56.82,8.78Z"/></g><g id="Text"><path d="M282.42,84.05a18,18,0,0,0,1.06-7.13v-46H267.73V76.56a3.3,3.3,0,0,1-3.25,3.35h-.34a3.25,3.25,0,0,1-3.46-3v-46H245v46A18,18,0,0,0,246,84.05a10.3,10.3,0,0,0,6.73,5.59A21.23,21.23,0,0,0,257,90h14.39a22,22,0,0,0,4.29-.34A10.25,10.25,0,0,0,282.42,84.05Z"/><path d="M208.16,30.89c-5.09,0-8.64,4.4-8.6,9.66V90h16V65.45h6.52V90H238V30.89Zm13.9,24.42h-6.49v-12c0-2.19.82-3,2.81-3h3.68Z"/><path d="M176.49,30.89V55.31h-7V30.89H153.42V90h16.1V65.45h6.9V90h16.12V30.89Z"/><path d="M135.56,42.33h10.92V30.89H119.42V90H146.5V78.55h-11V65.45h9.33V55.31H135.5Z"/><path d="M104.42,60.06a9.78,9.78,0,0,0,8-9.47v-10c-.09-5.35-4-9.66-8.26-9.66H73.7V90H89.57V65.45h4c2,0,2.79.93,2.79,3.07V90h16.06V69.67C112.42,64.45,108.21,60.5,104.42,60.06Zm-8.13-7.67c.06,1.78-.69,2.84-2,3H89.55v-15h4c2,0,2.82,1,2.79,3Z"/></g></svg>
